<svg width="37" height="50" viewBox="0 0 37 50" fill="none" xmlns="http://www.w3.org/2000/svg">
<g clip-path="url(#clip0_202_123)">
<path d="M32.6129 0C30.6651 0 29.0772 1.58668 29.0772 3.60687V15.2945H36.2197V3.60687C36.2197 1.58668 34.633 0 32.6129 0ZM18.1105 42.8575C12.2501 42.8575 7.46918 38.2706 7.16093 32.4876H0.00982463C0.325441 42.2385 8.35216 50 18.1105 50C27.8676 50 35.8943 42.2385 36.2099 32.4876H29.06C28.7518 38.2706 23.9709 42.8575 18.1105 42.8575ZM7.14373 3.60687C7.14373 1.58668 5.55583 0 3.53564 0C1.58791 0 0 1.58668 0 3.60687V15.2945H7.14373V3.60687Z" fill="#FBDB4A"/>
<path d="M5.36756 19.5328C5.36756 19.8524 5.10512 20.1034 4.79699 20.1034H1.3962V22.3972H3.98671C4.29483 22.3972 4.55727 22.6482 4.55727 22.9678C4.55727 23.2873 4.29483 23.5383 3.98671 23.5383H1.3962V26.3571C1.3962 26.6767 1.13376 26.9277 0.825631 26.9277C0.506085 26.9277 0.255066 26.6767 0.255066 26.3571V19.5327C0.255066 19.2132 0.506085 18.9622 0.825631 18.9622H0.837052C0.848474 18.9622 0.848474 18.9622 0.859895 18.9622H4.79712C5.10512 18.9623 5.36756 19.2133 5.36756 19.5328Z" fill="#3EB5F1"/>
<path d="M12.4208 24.1205V26.3572C12.4208 26.6882 12.1811 26.9278 11.8502 26.9278C11.6221 26.9278 11.3025 26.688 11.3025 26.3572C10.8118 26.768 10.264 26.9278 9.61353 26.9278C8.00438 26.9278 6.72632 25.7295 6.72632 24.1204C6.72632 22.5112 8.0045 21.2332 9.61353 21.2332C11.2226 21.2332 12.4208 22.5113 12.4208 24.1205ZM11.3024 24.1205C11.3024 23.1619 10.572 22.3516 9.61341 22.3516C8.65477 22.3516 7.84448 23.1619 7.84448 24.1205C7.84448 25.0791 8.65477 25.8095 9.61341 25.8095C10.572 25.8095 11.3024 25.079 11.3024 24.1205Z" fill="#3EB5F1"/>
<path d="M22.5892 23.5612C22.6006 23.5841 22.6006 23.5954 22.6006 23.6182V26.3913C22.6006 26.7109 22.338 26.9619 22.03 26.9619C21.722 26.9619 21.4708 26.7109 21.4708 26.3913V23.6182C21.4708 23.5954 21.4708 23.5839 21.4708 23.5612C21.4708 23.5498 21.4708 23.5384 21.4708 23.5155C21.4708 22.8764 20.9459 22.363 20.3067 22.363C19.6677 22.363 19.1427 22.8766 19.1427 23.5155V26.3913C19.1427 26.7109 18.8915 26.9619 18.5834 26.9619C18.2753 26.9619 18.0129 26.7109 18.0129 26.3913V23.5155C18.0129 22.8764 17.4993 22.363 16.8602 22.363C16.2211 22.363 15.6962 22.8766 15.6962 23.5155V26.3913C15.6962 26.7109 15.4452 26.9619 15.1369 26.9619C14.8174 26.9619 14.5664 26.7109 14.5664 26.3913V23.5155C14.5664 22.2602 15.5934 21.2332 16.8602 21.2332C17.545 21.2332 18.1612 21.5299 18.5834 22.0206C19.0056 21.5299 19.6219 21.2332 20.3065 21.2332C21.5733 21.2332 22.6005 22.2602 22.6005 23.5155C22.6006 23.5384 22.6006 23.5497 22.5892 23.5612Z" fill="#3EB5F1"/>
<path d="M24.9519 19.9209C24.8492 19.8182 24.7807 19.6698 24.7807 19.5215C24.7807 19.3731 24.8492 19.2248 24.9519 19.1221C25.0547 19.0195 25.203 18.9509 25.3514 18.9509C25.4997 18.9509 25.6481 19.0195 25.7507 19.1221C25.8535 19.2248 25.9105 19.3731 25.9105 19.5215C25.9105 19.6698 25.8535 19.8182 25.7507 19.9209C25.6481 20.0235 25.4997 20.0806 25.3514 20.0806C25.203 20.0806 25.0547 20.0235 24.9519 19.9209ZM24.7807 26.3801V21.781C24.7807 21.4729 25.0317 21.2218 25.3512 21.2218C25.6594 21.2218 25.9104 21.4728 25.9104 21.781V26.3801C25.9104 26.6996 25.6594 26.9506 25.3512 26.9506C25.0317 26.9506 24.7807 26.6996 24.7807 26.3801Z" fill="#3EB5F1"/>
<path d="M28.1017 26.38V18.9507C28.1017 18.6426 28.3528 18.3916 28.6723 18.3916C28.9804 18.3916 29.2315 18.6426 29.2315 18.9507V26.38C29.2315 26.6996 28.9804 26.9506 28.6723 26.9506C28.3528 26.9506 28.1017 26.6996 28.1017 26.38Z" fill="#3EB5F1"/>
<path d="M35.9647 21.8152V27.4415C35.9647 28.7309 34.9034 29.7924 33.6025 29.7924C32.7008 29.7924 31.8906 29.2788 31.4913 28.4686C31.3543 28.1948 31.4683 27.8524 31.7537 27.7154C32.0276 27.5785 32.3701 27.704 32.4956 27.9779C32.7125 28.4001 33.1346 28.6627 33.6026 28.6627C34.2872 28.6627 34.8351 28.1149 34.8351 27.4416V26.6199C34.4927 26.8253 34.0932 26.9394 33.6596 26.9394C32.4042 26.9394 31.3772 25.9237 31.3658 24.6684C31.3658 24.657 31.3658 24.657 31.3658 24.657V21.8154C31.3658 21.5072 31.6168 21.2561 31.925 21.2561C32.2331 21.2561 32.4842 21.5071 32.4842 21.8154V24.6455C32.4842 25.296 33.0206 25.8209 33.6596 25.8209C34.3101 25.8209 34.8351 25.296 34.8351 24.6455V21.8154C34.8351 21.5072 35.0861 21.2561 35.3942 21.2561C35.7136 21.256 35.9647 21.5071 35.9647 21.8152Z" fill="#3EB5F1"/>
</g>
<defs>
<clipPath id="clip0_202_123">
<rect width="36.2197" height="50" fill="white"/>
</clipPath>
</defs>
</svg>
