<svg width="31" height="20" viewBox="0 0 31 20" fill="none" xmlns="http://www.w3.org/2000/svg">
<g clip-path="url(#clip0_202_158)">
<path d="M0.406555 0H30.4066V20H0.406555V0Z" fill="white"/>
<path d="M0.406555 0H30.4066V1.53801H0.406555V0ZM0.406555 3.07602H30.4066V4.61404H0.406555V3.07602ZM0.406555 6.15205H30.4066V7.69006H0.406555V6.15205ZM0.406555 9.22807H30.4066V10.7661H0.406555V9.22807ZM0.406555 12.3099H30.4066V13.848H0.406555V12.3099ZM0.406555 15.386H30.4066V16.924H0.406555V15.386ZM0.406555 18.462H30.4066V20H0.406555V18.462Z" fill="#D80027"/>
<path d="M0.406555 0H15.4066V10.7661H0.406555V0Z" fill="#2E52B2"/>
<path d="M3.20188 8.1227L2.96796 7.37416L2.71065 8.1227H1.93872L2.56445 8.57299L2.33053 9.32153L2.96796 8.85954L3.58784 9.32153L3.34808 8.57299L3.9855 8.1227H3.20188ZM6.49428 8.1227L6.25451 7.37416L6.0089 8.1227H5.23697L5.8627 8.57299L5.62878 9.32153L6.25451 8.85954L6.88609 9.32153L6.65217 8.57299L7.2779 8.1227H6.49428ZM9.79837 8.1227L9.54691 7.37416L9.31299 8.1227H8.52352L9.16679 8.57299L8.92118 9.32153L9.54691 8.85954L10.1902 9.32153L9.94457 8.57299L10.5703 8.1227H9.79837ZM13.0849 8.1227L12.851 7.37416L12.6054 8.1227H11.8276L12.4592 8.57299L12.2253 9.32153L12.851 8.85954L13.4826 9.32153L13.2311 8.57299L13.8744 8.1227H13.0849ZM6.25451 4.4034L6.0089 5.15194H5.23697L5.8627 5.61393L5.62878 6.35077L6.25451 5.89463L6.88609 6.35077L6.65217 5.61393L7.2779 5.15194H6.49428L6.25451 4.4034ZM2.96796 4.4034L2.71065 5.15194H1.93872L2.56445 5.61393L2.33053 6.35077L2.96796 5.89463L3.58784 6.35077L3.34808 5.61393L3.9855 5.15194H3.20188L2.96796 4.4034ZM9.54691 4.4034L9.31299 5.15194H8.52352L9.16679 5.61393L8.92118 6.35077L9.54691 5.89463L10.1902 6.35077L9.94457 5.61393L10.5703 5.15194H9.79837L9.54691 4.4034ZM12.851 4.4034L12.6054 5.15194H11.8276L12.4592 5.61393L12.2253 6.35077L12.851 5.89463L13.4826 6.35077L13.2311 5.61393L13.8744 5.15194H13.0849L12.851 4.4034ZM2.96796 1.44434L2.71065 2.18118H1.93872L2.56445 2.64317L2.33053 3.38586L2.96796 2.92387L3.58784 3.38586L3.34808 2.64317L3.9855 2.18118H3.20188L2.96796 1.44434ZM6.25451 1.44434L6.0089 2.18118H5.23697L5.8627 2.64317L5.62878 3.38586L6.25451 2.92387L6.88609 3.38586L6.65217 2.64317L7.2779 2.18118H6.49428L6.25451 1.44434ZM9.54691 1.44434L9.31299 2.18118H8.52352L9.16679 2.64317L8.92118 3.38586L9.54691 2.92387L10.1902 3.38586L9.94457 2.64317L10.5703 2.18118H9.79837L9.54691 1.44434ZM12.851 1.44434L12.6054 2.18118H11.8276L12.4592 2.64317L12.2253 3.38586L12.851 2.92387L13.4826 3.38586L13.2311 2.64317L13.8744 2.18118H13.0849L12.851 1.44434Z" fill="white"/>
</g>
<defs>
<clipPath id="clip0_202_158">
<rect width="30" height="20" fill="white" transform="translate(0.406555)"/>
</clipPath>
</defs>
</svg>
